<?xml version="1.0" ?><!-- Uploaded to: SVG Repo, www.svgrepo.com, Generator: SVG Repo Mixer Tools -->
<svg fill="#000000" width="800px" height="800px" viewBox="0 0 24 24" id="Layer_2" version="1.1" xml:space="preserve" xmlns="http://www.w3.org/2000/svg" xmlns:xlink="http://www.w3.org/1999/xlink"><path d="M9.198,9.25H11.5v1.083h-1.313c-0.276,0-0.5,0.224-0.5,0.5s0.224,0.5,0.5,0.5h3.625c0.276,0,0.5-0.224,0.5-0.5  s-0.224-0.5-0.5-0.5H12.5V9.25h2.302c0.824,0,1.494-0.67,1.494-1.494V4.385c0-0.824-0.67-1.494-1.494-1.494H9.198  c-0.824,0-1.494,0.67-1.494,1.494v3.371C7.704,8.58,8.374,9.25,9.198,9.25z M8.704,4.385c0-0.272,0.222-0.494,0.494-0.494h5.604  c0.272,0,0.494,0.222,0.494,0.494v3.371c0,0.272-0.222,0.494-0.494,0.494H9.198c-0.272,0-0.494-0.222-0.494-0.494V4.385z"/><path d="M8.004,15.042H3.996c-0.554,0-1.004,0.45-1.004,1.004v2.533c0,0.554,0.45,1.004,1.004,1.004H5.5v0.376H4.803  c-0.276,0-0.5,0.224-0.5,0.5s0.224,0.5,0.5,0.5h2.395c0.276,0,0.5-0.224,0.5-0.5s-0.224-0.5-0.5-0.5H6.5v-0.376h1.504  c0.554,0,1.004-0.45,1.004-1.004v-2.533C9.008,15.492,8.558,15.042,8.004,15.042z M8.005,18.582  C8.005,18.582,8.005,18.582,8.005,18.582l-4.013-0.004l0.004-2.537l4.012,0.004L8.005,18.582z"/><path d="M20.004,15.042h-4.008c-0.554,0-1.004,0.45-1.004,1.004v2.533c0,0.554,0.45,1.004,1.004,1.004H17.5v0.376h-0.697  c-0.276,0-0.5,0.224-0.5,0.5s0.224,0.5,0.5,0.5h2.395c0.276,0,0.5-0.224,0.5-0.5s-0.224-0.5-0.5-0.5H18.5v-0.376h1.504  c0.554,0,1.004-0.45,1.004-1.004v-2.533C21.008,15.492,20.558,15.042,20.004,15.042z M20.005,18.582  C20.005,18.582,20.005,18.582,20.005,18.582l-4.013-0.004l0.004-2.537l4.012,0.004L20.005,18.582z"/><path d="M17.5,14.167c0,0.276,0.224,0.5,0.5,0.5s0.5-0.224,0.5-0.5v-1.042c0-0.276-0.224-0.5-0.5-0.5h-5.5V12  c0-0.276-0.224-0.5-0.5-0.5s-0.5,0.224-0.5,0.5v0.625H6c-0.276,0-0.5,0.224-0.5,0.5v1.042c0,0.276,0.224,0.5,0.5,0.5  s0.5-0.224,0.5-0.5v-0.542H12h5.5V14.167z"/></svg>