<?xml version="1.0" encoding="UTF-8"?>
<svg version="1.1" viewBox="0 0 840 859" width="10" height="10" xmlns="http://www.w3.org/2000/svg">
<path transform="translate(405,169)" d="m0 0h31l24 2 25 5 19 6 21 8 17 8 15 9 11 7 12 9 10 8 8 8 8 7 12 13 7 8 11 15 7 11 11 19 11 26 7 21 3 11 4 20 2 24v31l-2 24-5 25-10 30-12 27-9 15-9 14-14 18-10 10-7 8-15 14-13 10-13 9-17 10-16 8-30 12-12 3-7 2-20 4-24 2h-31l-18-1-31-6-16-5-15-5-15-7-12-6-14-8-14-9-18-14-9-8v-2l-4-2-16-16-10-13-8-11-7-11-6-10-8-16-8-19-5-13-4-14-6-31-1-18v-31l1-18 6-31 6-19 10-25 7-14 8-14 7-11 14-19 12-13 18-18 13-10 15-11 12-7 9-5 16-8 14-6 32-10 11-2 16-3z" fill="#FE0000"/>
</svg>
