<?xml version="1.0" encoding="UTF-8"?>
<svg xmlns="http://www.w3.org/2000/svg" xmlns:xlink="http://www.w3.org/1999/xlink" width="209px" height="100px" viewBox="0 0 209 100" version="1.1">
<g id="surface1">
<path style=" stroke:none;fill-rule:nonzero;fill:rgb(24.313725%,24.705882%,58.039216%);fill-opacity:1;" d="M 46.6875 -0.3125 C 47.492188 -0.289062 48.296875 -0.265625 49.101562 -0.242188 C 51.070312 -0.1875 53.035156 -0.101562 55 0 C 55.277344 0.5 55.277344 0.5 55.5625 1.011719 C 60.285156 9.492188 60.285156 9.492188 65.160156 17.878906 C 66.761719 20.582031 68.320312 23.300781 69.875 26.03125 C 74.832031 34.734375 79.910156 43.371094 85 52 C 88.683594 46.183594 92.078125 40.199219 95.507812 34.230469 C 97.390625 30.949219 99.285156 27.667969 101.179688 24.390625 C 102.621094 21.894531 104.058594 19.398438 105.496094 16.894531 C 105.996094 16.023438 106.496094 15.152344 107 14.28125 C 107.621094 13.199219 108.242188 12.117188 108.863281 11.03125 C 109.441406 10.03125 110.023438 9.035156 110.621094 8.042969 C 111.539062 6.484375 111.539062 6.484375 112.316406 4.699219 C 113.234375 2.847656 114.03125 1.460938 115.5 0 C 117.949219 -0.789062 120.132812 -0.859375 122.6875 -0.738281 C 123.816406 -0.6875 124.933594 -0.695312 126.066406 -0.710938 C 131.140625 -0.679688 131.140625 -0.679688 133.0625 0.839844 C 133.871094 2.019531 134.425781 3.1875 135 4.5 C 135.542969 5.460938 136.09375 6.421875 136.648438 7.375 C 137.226562 8.414062 137.800781 9.457031 138.375 10.5 C 140.398438 14.148438 142.433594 17.789062 144.5625 21.375 C 146.363281 24.410156 148.128906 27.464844 149.875 30.53125 C 152.136719 34.5 154.417969 38.457031 156.71875 42.40625 C 157.007812 42.902344 157.296875 43.402344 157.597656 43.914062 C 159.1875 46.640625 160.8125 49.335938 162.5 52 C 165.203125 47.667969 167.796875 43.289062 170.3125 38.84375 C 171.015625 37.605469 171.722656 36.367188 172.425781 35.128906 C 172.601562 34.824219 172.777344 34.515625 172.957031 34.199219 C 174.617188 31.285156 176.304688 28.390625 178 25.5 C 180.953125 20.457031 183.859375 15.386719 186.746094 10.304688 C 192.105469 0.894531 192.105469 0.894531 193 0 C 194.1875 -0.0429688 195.359375 -0.0585938 196.546875 -0.046875 C 197.082031 -0.046875 197.082031 -0.046875 197.621094 -0.046875 C 198.757812 -0.0429688 199.894531 -0.0390625 201.03125 -0.03125 C 201.800781 -0.0273438 202.566406 -0.0273438 203.335938 -0.0234375 C 205.226562 -0.0195312 207.113281 -0.0117188 209 0 C 208.703125 1.984375 208.082031 3.4375 207.09375 5.179688 C 206.808594 5.691406 206.519531 6.203125 206.222656 6.730469 C 205.910156 7.273438 205.601562 7.816406 205.28125 8.375 C 204.960938 8.9375 204.644531 9.5 204.3125 10.082031 C 202.386719 13.472656 200.4375 16.851562 198.445312 20.207031 C 196.5625 23.382812 194.71875 26.582031 192.875 29.78125 C 190.441406 34.007812 187.996094 38.226562 185.53125 42.4375 C 182.566406 47.503906 179.652344 52.59375 176.753906 57.691406 C 171.394531 67.105469 171.394531 67.105469 170.5 68 C 168.285156 68.242188 166.070312 68.328125 163.847656 68.394531 C 163.101562 68.421875 162.355469 68.464844 161.609375 68.519531 C 159.105469 68.695312 156.929688 68.703125 154.5 68 C 152.574219 66.078125 151.59375 63.945312 150.5 61.5 C 150.03125 60.667969 149.550781 59.84375 149.0625 59.023438 C 148.613281 58.234375 148.164062 57.445312 147.71875 56.65625 C 147.199219 55.746094 146.683594 54.832031 146.164062 53.921875 C 145.894531 53.449219 145.625 52.972656 145.347656 52.484375 C 143.855469 49.871094 142.347656 47.261719 140.84375 44.65625 C 140.53125 44.113281 140.21875 43.570312 139.894531 43.011719 C 139.253906 41.902344 138.613281 40.789062 137.96875 39.679688 C 136.671875 37.433594 135.378906 35.1875 134.082031 32.9375 C 130.726562 27.121094 127.367188 21.308594 124 15.5 C 121.683594 18.835938 119.671875 22.289062 117.71875 25.84375 C 115.207031 30.375 112.632812 34.859375 109.984375 39.308594 C 107.875 42.855469 105.804688 46.421875 103.75 50 C 101.292969 54.273438 98.816406 58.535156 96.3125 62.78125 C 95.898438 63.488281 95.898438 63.488281 95.472656 64.207031 C 95.09375 64.847656 95.09375 64.847656 94.707031 65.503906 C 94.484375 65.878906 94.261719 66.253906 94.035156 66.640625 C 93.5 67.5 93.5 67.5 93 68 C 90.839844 68.179688 88.671875 68.222656 86.503906 68.257812 C 85.777344 68.273438 85.046875 68.296875 84.320312 68.328125 C 78.390625 68.585938 78.390625 68.585938 76.46875 67.320312 C 75.640625 66.265625 75.085938 65.210938 74.5 64 C 73.890625 62.96875 73.28125 61.941406 72.667969 60.914062 C 72.003906 59.746094 71.34375 58.578125 70.6875 57.40625 C 70.332031 56.777344 69.976562 56.152344 69.621094 55.523438 C 68.910156 54.269531 68.199219 53.011719 67.492188 51.753906 C 66.148438 49.375 64.792969 47 63.4375 44.625 C 63.199219 44.207031 62.960938 43.792969 62.71875 43.363281 C 59.984375 38.582031 57.203125 33.832031 54.421875 29.078125 C 52.800781 26.300781 51.179688 23.527344 49.5625 20.75 C 48.96875 19.734375 48.378906 18.71875 47.785156 17.703125 C 47.355469 16.96875 46.929688 16.234375 46.5 15.5 C 42.832031 21.328125 39.421875 27.300781 35.992188 33.269531 C 34.417969 36.015625 32.832031 38.757812 31.25 41.5 C 30.628906 42.574219 30.007812 43.652344 29.390625 44.726562 C 28.261719 46.683594 27.132812 48.636719 26.003906 50.589844 C 22.65625 56.386719 19.3125 62.183594 16 68 C 10.71875 68 5.441406 68 0 68 C 0 65.1875 0 65.1875 0.957031 63.601562 C 1.167969 63.242188 1.378906 62.882812 1.597656 62.515625 C 1.953125 61.933594 1.953125 61.933594 2.3125 61.34375 C 2.824219 60.484375 3.332031 59.628906 3.84375 58.769531 C 4.25 58.089844 4.25 58.089844 4.664062 57.398438 C 6.074219 55.039062 7.457031 52.660156 8.84375 50.28125 C 9.136719 49.78125 9.425781 49.28125 9.726562 48.769531 C 11.996094 44.878906 14.238281 40.972656 16.46875 37.0625 C 21.53125 28.183594 26.636719 19.332031 31.78125 10.5 C 32.0625 10.019531 32.339844 9.539062 32.628906 9.042969 C 33.160156 8.132812 33.703125 7.226562 34.25 6.328125 C 35.035156 5.011719 35.035156 5.011719 35.5625 3.558594 C 37.710938 -1.421875 42.011719 -0.566406 46.6875 -0.3125 Z M 47.5 5 C 46.917969 6.453125 46.917969 6.453125 47 8 C 47.65625 9.28125 48.152344 9.828125 49.4375 10.46875 C 51.046875 10.515625 51.777344 10.023438 53 9 C 53.582031 7.546875 53.582031 7.546875 53.5 6 C 52.84375 4.71875 52.347656 4.171875 51.0625 3.53125 C 49.453125 3.484375 48.722656 3.976562 47.5 5 Z M 125 5 C 124.339844 5.550781 124.339844 5.550781 124.375 6.9375 C 124.367188 8.46875 124.367188 8.46875 125.125 9.40625 C 126.15625 10.105469 126.746094 10.425781 128 10.5 C 129.394531 10.03125 129.394531 10.03125 130.5 9 C 131.082031 7.546875 131.082031 7.546875 131 6 C 130.34375 4.71875 129.847656 4.171875 128.5625 3.53125 C 127.035156 3.488281 126.226562 4.140625 125 5 Z M 86.5625 58.0625 C 85.734375 59.441406 85.804688 60.425781 86 62 C 86.5 63 86.5 63 87.5 63.5 C 89.074219 63.695312 90.058594 63.765625 91.4375 62.9375 C 92.265625 61.558594 92.195312 60.574219 92 59 C 91.5 58 91.5 58 90.5 57.5 C 88.925781 57.304688 87.941406 57.234375 86.5625 58.0625 Z M 164.09375 58.125 C 163.410156 59.132812 163.109375 59.785156 163 61 C 163.496094 62.332031 163.714844 62.855469 165 63.5 C 167.066406 63.6875 167.066406 63.6875 168.9375 62.9375 C 169.765625 61.558594 169.695312 60.574219 169.5 59 C 169 58 169 58 168 57.5 C 166.40625 57.300781 165.4375 57.195312 164.09375 58.125 Z M 164.09375 58.125 "/>
<path style=" stroke:none;fill-rule:nonzero;fill:rgb(92.54902%,19.607843%,21.568627%);fill-opacity:1;" d="M 115.5 0 C 117.792969 -0.113281 120.089844 -0.191406 122.382812 -0.246094 C 123.164062 -0.269531 123.945312 -0.300781 124.722656 -0.339844 C 131.132812 -0.652344 131.132812 -0.652344 133.078125 0.8125 C 133.890625 2 134.4375 3.175781 135 4.5 C 135.542969 5.460938 136.089844 6.421875 136.648438 7.375 C 137.226562 8.414062 137.800781 9.457031 138.375 10.5 C 140.398438 14.148438 142.433594 17.789062 144.5625 21.375 C 146.363281 24.410156 148.128906 27.464844 149.875 30.53125 C 152.136719 34.5 154.417969 38.457031 156.71875 42.40625 C 157.007812 42.902344 157.296875 43.402344 157.597656 43.914062 C 159.1875 46.640625 160.8125 49.335938 162.5 52 C 165.203125 47.667969 167.796875 43.289062 170.3125 38.84375 C 171.015625 37.605469 171.722656 36.367188 172.425781 35.132812 C 172.601562 34.824219 172.777344 34.515625 172.957031 34.199219 C 174.617188 31.285156 176.304688 28.390625 178 25.5 C 180.953125 20.457031 183.859375 15.386719 186.75 10.308594 C 192.105469 0.894531 192.105469 0.894531 193 0 C 194.1875 -0.0429688 195.359375 -0.0585938 196.546875 -0.0507812 C 197.082031 -0.046875 197.082031 -0.046875 197.621094 -0.046875 C 198.757812 -0.0429688 199.894531 -0.0390625 201.03125 -0.03125 C 201.800781 -0.0273438 202.566406 -0.0273438 203.335938 -0.0234375 C 205.226562 -0.0195312 207.113281 -0.0117188 209 0 C 208.703125 1.984375 208.082031 3.4375 207.09375 5.179688 C 206.808594 5.691406 206.519531 6.203125 206.222656 6.730469 C 205.910156 7.273438 205.601562 7.816406 205.28125 8.375 C 204.960938 8.9375 204.644531 9.5 204.3125 10.082031 C 202.386719 13.472656 200.4375 16.851562 198.445312 20.207031 C 196.5625 23.382812 194.71875 26.582031 192.875 29.78125 C 190.441406 34.007812 187.996094 38.226562 185.53125 42.4375 C 182.566406 47.503906 179.652344 52.59375 176.753906 57.691406 C 171.394531 67.105469 171.394531 67.105469 170.5 68 C 168.285156 68.242188 166.070312 68.328125 163.847656 68.394531 C 163.101562 68.421875 162.355469 68.464844 161.609375 68.519531 C 159.105469 68.695312 156.929688 68.703125 154.5 68 C 152.574219 66.078125 151.59375 63.945312 150.5 61.5 C 150.03125 60.667969 149.550781 59.84375 149.0625 59.023438 C 148.613281 58.234375 148.164062 57.445312 147.71875 56.65625 C 147.199219 55.746094 146.683594 54.832031 146.164062 53.921875 C 145.894531 53.449219 145.625 52.972656 145.347656 52.484375 C 143.855469 49.871094 142.347656 47.261719 140.84375 44.65625 C 140.53125 44.113281 140.214844 43.570312 139.894531 43.007812 C 138.929688 41.339844 137.964844 39.667969 137 38 C 129.496094 25.007812 129.496094 25.007812 125.789062 18.503906 C 124.363281 16 122.925781 13.503906 121.476562 11.011719 C 121.132812 10.414062 120.785156 9.8125 120.4375 9.214844 C 119.761719 8.046875 119.082031 6.882812 118.40625 5.71875 C 118.097656 5.191406 117.792969 4.664062 117.476562 4.121094 C 117.207031 3.652344 116.933594 3.179688 116.648438 2.695312 C 116 1.5 116 1.5 115.5 0 Z M 125 5 C 124.339844 5.550781 124.339844 5.550781 124.375 6.9375 C 124.367188 8.46875 124.367188 8.46875 125.125 9.40625 C 126.15625 10.105469 126.746094 10.425781 128 10.5 C 129.394531 10.03125 129.394531 10.03125 130.5 9 C 131.082031 7.546875 131.082031 7.546875 131 6 C 130.34375 4.71875 129.847656 4.171875 128.5625 3.53125 C 127.035156 3.488281 126.226562 4.140625 125 5 Z M 164.09375 58.125 C 163.410156 59.132812 163.109375 59.785156 163 61 C 163.496094 62.332031 163.714844 62.855469 165 63.5 C 167.066406 63.6875 167.066406 63.6875 168.9375 62.9375 C 169.765625 61.558594 169.695312 60.574219 169.5 59 C 169 58 169 58 168 57.5 C 166.40625 57.300781 165.4375 57.195312 164.09375 58.125 Z M 164.09375 58.125 "/>
<path style=" stroke:none;fill-rule:nonzero;fill:rgb(24.313725%,25.098039%,58.431373%);fill-opacity:1;" d="M 3.484375 73.566406 C 5.328125 74.355469 6.394531 75.929688 7.65625 77.445312 C 9.527344 79.671875 11.652344 81.65625 13.738281 83.675781 C 14.511719 84.433594 15.257812 85.214844 16 86 C 16 86.328125 16 86.660156 16 87 C 16.496094 87.164062 16.988281 87.328125 17.5 87.5 C 18.160156 88.324219 18.820312 89.148438 19.5 90 C 19.664062 84.71875 19.828125 79.441406 20 74 C 21.816406 74 23.628906 74 25.5 74 C 25.523438 77.542969 25.542969 81.085938 25.554688 84.625 C 25.558594 85.832031 25.566406 87.039062 25.574219 88.242188 C 25.585938 89.972656 25.59375 91.703125 25.597656 93.433594 C 25.601562 93.976562 25.609375 94.515625 25.613281 95.074219 C 25.613281 95.824219 25.613281 95.824219 25.613281 96.589844 C 25.617188 97.035156 25.617188 97.476562 25.621094 97.929688 C 25.5 99 25.5 99 24.5 100 C 22.875 100.234375 22.875 100.234375 21 100 C 19.824219 99.101562 18.96875 98.328125 18 97.25 C 17.738281 96.972656 17.476562 96.699219 17.207031 96.414062 C 15.578125 94.679688 14.007812 92.890625 12.46875 91.078125 C 10.257812 88.613281 7.851562 86.324219 5.5 84 C 5.335938 89.28125 5.171875 94.558594 5 100 C 3.351562 100 1.699219 100 0 100 C 0 91.421875 0 82.839844 0 74 C 1.21875 73.390625 2.144531 73.339844 3.484375 73.566406 Z M 3.484375 73.566406 "/>
<path style=" stroke:none;fill-rule:nonzero;fill:rgb(24.313725%,25.098039%,58.431373%);fill-opacity:1;" d="M 53 80 C 54.816406 80 56.628906 80 58.5 80 C 58.664062 82.96875 58.828125 85.941406 59 89 C 61.171875 86.875 63.234375 84.707031 65.210938 82.398438 C 65.472656 82.101562 65.730469 81.804688 66 81.5 C 66.242188 81.210938 66.488281 80.921875 66.738281 80.625 C 67.5 80 67.5 80 69.3125 80.125 C 71 80.5 71 80.5 71.5 81 C 71.578125 81.78125 71.625 82.5625 71.65625 83.34375 C 71.679688 83.816406 71.699219 84.289062 71.722656 84.777344 C 71.742188 85.273438 71.761719 85.769531 71.78125 86.28125 C 71.804688 86.78125 71.824219 87.277344 71.847656 87.792969 C 71.898438 89.027344 71.949219 90.265625 72 91.5 C 74.011719 88.949219 75.710938 86.390625 77.1875 83.5 C 77.363281 83.160156 77.542969 82.820312 77.726562 82.46875 C 78.152344 81.648438 78.578125 80.824219 79 80 C 80.980469 80 82.960938 80 85 80 C 84.171875 86.921875 78.601562 93.972656 73.414062 98.347656 C 71.421875 99.769531 69.972656 100.261719 67.5 100 C 66.679688 99.480469 66.679688 99.480469 66 98.5 C 65.8125 97.183594 65.699219 95.976562 65.65625 94.65625 C 65.628906 94.128906 65.628906 94.128906 65.605469 93.59375 C 65.5625 92.730469 65.53125 91.863281 65.5 91 C 65.195312 91.328125 65.195312 91.328125 64.882812 91.664062 C 63.953125 92.664062 63.023438 93.660156 62.09375 94.65625 C 61.613281 95.175781 61.613281 95.175781 61.121094 95.703125 C 60.652344 96.203125 60.652344 96.203125 60.179688 96.710938 C 59.890625 97.019531 59.605469 97.324219 59.3125 97.640625 C 59.042969 97.925781 58.777344 98.207031 58.5 98.5 C 58.242188 98.78125 57.988281 99.0625 57.722656 99.351562 C 57 100 57 100 55.75 100.1875 C 54.5 100 54.5 100 53.679688 99.5 C 52.59375 97.902344 52.816406 96.171875 52.851562 94.304688 C 52.855469 93.898438 52.859375 93.488281 52.859375 93.070312 C 52.867188 91.765625 52.886719 90.460938 52.90625 89.15625 C 52.914062 88.273438 52.921875 87.386719 52.925781 86.503906 C 52.941406 84.335938 52.96875 82.167969 53 80 Z M 53 80 "/>
<path style=" stroke:none;fill-rule:nonzero;fill:rgb(92.941176%,19.607843%,21.568627%);fill-opacity:1;" d="M 120.8125 79.875 C 121.304688 79.863281 121.796875 79.855469 122.304688 79.84375 C 125.273438 79.828125 127.394531 80.050781 130 81.5 C 132.585938 84.085938 132.582031 86.628906 132.625 90.15625 C 132.621094 93.097656 132.464844 95.410156 131 98 C 128.253906 100.554688 125.386719 100.300781 121.78125 100.25 C 120.953125 100.261719 120.953125 100.261719 120.105469 100.273438 C 116.808594 100.257812 114.648438 100.023438 112 98 C 110.332031 95.292969 110.363281 93.492188 111 90.5 C 111.464844 88.832031 112.011719 88.492188 113.453125 87.453125 C 115.875 86.101562 118.261719 86.277344 120.96875 86.375 C 121.453125 86.382812 121.9375 86.394531 122.4375 86.402344 C 123.625 86.425781 124.8125 86.460938 126 86.5 C 126 88.316406 126 90.128906 126 92 C 122.863281 92.164062 119.730469 92.328125 116.5 92.5 C 116.5 92.996094 116.5 93.488281 116.5 94 C 118.078125 94.789062 119.769531 94.570312 121.5 94.5625 C 121.867188 94.5625 122.238281 94.566406 122.617188 94.570312 C 124.625 94.605469 124.625 94.605469 126.5 94 C 126.5 91.359375 126.5 88.71875 126.5 86 C 122.703125 85.835938 118.910156 85.671875 115 85.5 C 115 78.851562 115.28125 79.902344 120.8125 79.875 Z M 120.8125 79.875 "/>
<path style=" stroke:none;fill-rule:nonzero;fill:rgb(24.313725%,25.098039%,58.431373%);fill-opacity:1;" d="M 39.75 79.78125 C 40.585938 79.777344 40.585938 79.777344 41.4375 79.769531 C 44.792969 79.796875 47.308594 79.984375 49.90625 82.3125 C 51.171875 84.839844 51.21875 87.210938 50.46875 89.90625 C 49.390625 91.683594 48.417969 92.730469 46.5 93.5 C 44.597656 93.738281 42.726562 93.6875 40.8125 93.625 C 40.300781 93.617188 39.789062 93.605469 39.265625 93.597656 C 38.007812 93.574219 36.753906 93.539062 35.5 93.5 C 35.5 91.851562 35.5 90.199219 35.5 88.5 C 36.402344 88.453125 36.402344 88.453125 37.324219 88.40625 C 38.113281 88.367188 38.898438 88.324219 39.6875 88.28125 C 40.085938 88.261719 40.480469 88.242188 40.890625 88.222656 C 43.011719 88.15625 43.011719 88.15625 45 87.5 C 45 87.003906 45 86.511719 45 86 C 43.421875 85.210938 41.730469 85.429688 40 85.4375 C 39.632812 85.4375 39.261719 85.433594 38.882812 85.429688 C 36.875 85.394531 36.875 85.394531 35 86 C 35 88.640625 35 91.28125 35 94 C 38.136719 94.164062 41.269531 94.328125 44.5 94.5 C 44.5 96.316406 44.5 98.128906 44.5 100 C 42.8125 100.039062 41.125 100.070312 39.4375 100.09375 C 38.960938 100.105469 38.484375 100.117188 37.996094 100.132812 C 35.277344 100.160156 33.34375 100.050781 31 98.5 C 28.695312 95.957031 28.894531 93.339844 28.875 90.09375 C 28.863281 89.648438 28.855469 89.203125 28.84375 88.746094 C 28.828125 86.132812 28.933594 84.199219 30.5 82 C 33.183594 79.378906 36.226562 79.71875 39.75 79.78125 Z M 39.75 79.78125 "/>
<path style=" stroke:none;fill-rule:nonzero;fill:rgb(92.941176%,19.607843%,21.568627%);fill-opacity:1;" d="M 198.625 79.84375 C 199.082031 79.828125 199.542969 79.816406 200.015625 79.800781 C 203.058594 79.773438 205.503906 80.15625 208 82 C 209.195312 83.792969 209.210938 84.769531 209.28125 86.90625 C 209.3125 87.507812 209.34375 88.109375 209.375 88.726562 C 208.925781 90.847656 208.34375 91.652344 206.644531 92.945312 C 204.375 94.046875 201.996094 93.808594 199.53125 93.6875 C 199 93.675781 198.464844 93.660156 197.917969 93.648438 C 196.609375 93.613281 195.304688 93.558594 194 93.5 C 194 91.851562 194 90.199219 194 88.5 C 197.136719 88.335938 200.269531 88.171875 203.5 88 C 203.5 87.339844 203.5 86.679688 203.5 86 C 201.925781 85.984375 200.355469 85.976562 198.78125 85.96875 C 198.332031 85.964844 197.882812 85.960938 197.421875 85.957031 C 196.992188 85.953125 196.566406 85.953125 196.125 85.953125 C 195.730469 85.949219 195.335938 85.945312 194.929688 85.941406 C 193.992188 85.898438 193.992188 85.898438 193.5 86.5 C 193.464844 87.847656 193.453125 89.183594 193.46875 90.53125 C 193.480469 91.839844 193.488281 93.152344 193.5 94.5 C 196.800781 94.664062 200.101562 94.828125 203.5 95 C 203.5 96.484375 203.5 97.96875 203.5 99.5 C 202.324219 100.675781 199.480469 100.140625 197.90625 100.15625 C 197.433594 100.171875 196.960938 100.183594 196.472656 100.199219 C 193.566406 100.226562 191.742188 100.046875 189.5 98 C 187.5 95.734375 187.777344 93.144531 187.8125 90.28125 C 187.808594 89.816406 187.800781 89.351562 187.796875 88.875 C 187.804688 86.207031 188.003906 84.296875 189.5 82 C 192.105469 79.5625 195.257812 79.878906 198.625 79.84375 Z M 198.625 79.84375 "/>
<path style=" stroke:none;fill-rule:nonzero;fill:rgb(92.941176%,19.607843%,21.568627%);fill-opacity:1;" d="M 86.5 74 C 88.480469 74 90.460938 74 92.5 74 C 93.398438 75.785156 94.296875 77.574219 95.195312 79.363281 C 95.5 79.96875 95.804688 80.574219 96.109375 81.183594 C 99.234375 87.382812 99.234375 87.382812 100.5 90.5 C 101.667969 89.039062 102.5 87.582031 103.296875 85.894531 C 103.535156 85.394531 103.769531 84.898438 104.015625 84.382812 C 104.378906 83.605469 104.378906 83.605469 104.75 82.8125 C 105.234375 81.789062 105.71875 80.761719 106.203125 79.738281 C 106.429688 79.261719 106.652344 78.785156 106.882812 78.292969 C 107.570312 76.851562 108.277344 75.421875 109 74 C 110.980469 74 112.960938 74 115 74 C 114.550781 76.25 113.882812 77.886719 112.84375 79.875 C 110.671875 84.105469 108.628906 88.394531 106.605469 92.695312 C 104.0625 98.050781 104.0625 98.050781 102.5 100 C 100.78125 100.4375 100.78125 100.4375 99 100 C 96.703125 97.34375 95.34375 93.714844 93.875 90.5625 C 91.925781 86.421875 89.929688 82.308594 87.820312 78.25 C 86.5 75.660156 86.5 75.660156 86.5 74 Z M 86.5 74 "/>
<path style=" stroke:none;fill-rule:nonzero;fill:rgb(92.941176%,19.607843%,21.568627%);fill-opacity:1;" d="M 164.5 80 C 165.324219 79.988281 166.144531 79.976562 166.96875 79.96875 C 167.425781 79.964844 167.886719 79.957031 168.359375 79.953125 C 169.5 80 169.5 80 170 80.5 C 170.078125 81.5 170.125 82.5 170.15625 83.5 C 170.191406 84.414062 170.191406 84.414062 170.222656 85.34375 C 170.242188 85.984375 170.261719 86.621094 170.28125 87.28125 C 170.304688 87.921875 170.324219 88.566406 170.347656 89.226562 C 170.398438 90.816406 170.449219 92.410156 170.5 94 C 176.925781 91.039062 179.351562 86.28125 182 80 C 183.816406 80 185.628906 80 187.5 80 C 186.882812 86.136719 183.117188 92.464844 178.40625 96.421875 C 174.535156 99.171875 170.289062 100.695312 165.5 100 C 164.5 99 164.5 99 164.386719 97.140625 C 164.386719 96.34375 164.390625 95.542969 164.402344 94.746094 C 164.402344 94.324219 164.40625 93.90625 164.40625 93.472656 C 164.414062 92.128906 164.425781 90.78125 164.4375 89.4375 C 164.441406 88.527344 164.445312 87.617188 164.453125 86.703125 C 164.460938 84.46875 164.480469 82.234375 164.5 80 Z M 164.5 80 "/>
<path style=" stroke:none;fill-rule:nonzero;fill:rgb(92.941176%,19.607843%,21.568627%);fill-opacity:1;" d="M 140 74 C 141.816406 74 143.628906 74 145.5 74 C 145.5 75.980469 145.5 77.960938 145.5 80 C 147.976562 80 150.449219 80 153 80 C 153 81.816406 153 83.628906 153 85.5 C 150.523438 85.5 148.050781 85.5 145.5 85.5 C 145.5 90.285156 145.5 95.070312 145.5 100 C 143.683594 100 141.871094 100 140 100 C 140 95.214844 140 90.429688 140 85.5 C 138.019531 85.5 136.039062 85.5 134 85.5 C 134 83.683594 134 81.871094 134 80 C 135.980469 80 137.960938 80 140 80 C 140 78.019531 140 76.039062 140 74 Z M 140 74 "/>
<path style=" stroke:none;fill-rule:nonzero;fill:rgb(92.941176%,19.607843%,21.568627%);fill-opacity:1;" d="M 155.5 80 C 157.148438 80 158.800781 80 160.5 80 C 161 80.5 161 80.5 161.058594 82.347656 C 161.058594 83.167969 161.054688 83.992188 161.046875 84.8125 C 161.046875 85.246094 161.046875 85.679688 161.046875 86.125 C 161.042969 87.507812 161.039062 88.894531 161.03125 90.28125 C 161.027344 91.21875 161.027344 92.15625 161.023438 93.09375 C 161.019531 95.394531 161.011719 97.699219 161 100 C 159.183594 100 157.371094 100 155.5 100 C 155.5 93.398438 155.5 86.800781 155.5 80 Z M 155.5 80 "/>
<path style=" stroke:none;fill-rule:nonzero;fill:rgb(92.941176%,19.607843%,21.568627%);fill-opacity:1;" d="M 155.5 72.5 C 157.316406 72.5 159.128906 72.5 161 72.5 C 161.046875 75.96875 161.046875 75.96875 161 77 C 160.5 77.5 160.5 77.5 159.359375 77.546875 C 158.070312 77.53125 156.785156 77.515625 155.5 77.5 C 155.5 75.851562 155.5 74.199219 155.5 72.5 Z M 155.5 72.5 "/>
</g>
</svg>
