<?xml version="1.0" encoding="UTF-8"?>
<svg xmlns="http://www.w3.org/2000/svg" xmlns:xlink="http://www.w3.org/1999/xlink" width="100px" height="48px" viewBox="0 0 100 48" version="1.1">
<g id="surface1">
<path style=" stroke:none;fill-rule:nonzero;fill:rgb(24.313725%,24.705882%,58.039216%);fill-opacity:1;" d="M 22.339844 -0.148438 C 22.722656 -0.140625 23.109375 -0.128906 23.492188 -0.117188 C 24.4375 -0.0898438 25.375 -0.046875 26.316406 0 C 26.449219 0.238281 26.449219 0.238281 26.585938 0.484375 C 28.84375 4.554688 28.84375 4.554688 31.175781 8.582031 C 31.945312 9.878906 32.6875 11.183594 33.433594 12.496094 C 35.804688 16.671875 38.234375 20.816406 40.667969 24.960938 C 42.433594 22.167969 44.054688 19.296875 45.699219 16.429688 C 46.597656 14.855469 47.503906 13.28125 48.410156 11.707031 C 49.101562 10.507812 49.789062 9.3125 50.476562 8.109375 C 50.714844 7.691406 50.953125 7.273438 51.195312 6.855469 C 51.492188 6.335938 51.789062 5.816406 52.085938 5.296875 C 52.363281 4.816406 52.644531 4.335938 52.929688 3.859375 C 53.367188 3.113281 53.367188 3.113281 53.738281 2.253906 C 54.179688 1.367188 54.558594 0.703125 55.261719 0 C 56.433594 -0.378906 57.480469 -0.414062 58.703125 -0.355469 C 59.242188 -0.328125 59.777344 -0.332031 60.320312 -0.339844 C 62.746094 -0.328125 62.746094 -0.328125 63.667969 0.402344 C 64.054688 0.96875 64.320312 1.53125 64.59375 2.160156 C 64.851562 2.621094 65.117188 3.082031 65.382812 3.539062 C 65.660156 4.039062 65.933594 4.539062 66.207031 5.039062 C 67.175781 6.792969 68.148438 8.539062 69.167969 10.261719 C 70.03125 11.71875 70.875 13.183594 71.710938 14.65625 C 72.792969 16.558594 73.882812 18.460938 74.984375 20.355469 C 75.125 20.59375 75.261719 20.832031 75.40625 21.078125 C 76.167969 22.386719 76.945312 23.679688 77.75 24.960938 C 79.042969 22.878906 80.285156 20.777344 81.488281 18.644531 C 81.824219 18.050781 82.164062 17.457031 82.5 16.863281 C 82.585938 16.714844 82.667969 16.566406 82.753906 16.414062 C 83.550781 15.015625 84.355469 13.628906 85.167969 12.238281 C 86.582031 9.820312 87.972656 7.386719 89.351562 4.945312 C 91.917969 0.429688 91.917969 0.429688 92.34375 0 C 92.914062 -0.0195312 93.472656 -0.0273438 94.042969 -0.0234375 C 94.296875 -0.0234375 94.296875 -0.0234375 94.554688 -0.0234375 C 95.097656 -0.0195312 95.644531 -0.0195312 96.1875 -0.015625 C 96.554688 -0.0117188 96.921875 -0.0117188 97.289062 -0.0117188 C 98.195312 -0.0078125 99.097656 -0.00390625 100 0 C 99.859375 0.953125 99.5625 1.648438 99.089844 2.484375 C 98.953125 2.730469 98.8125 2.976562 98.671875 3.230469 C 98.523438 3.492188 98.375 3.75 98.21875 4.019531 C 98.066406 4.289062 97.917969 4.558594 97.757812 4.839844 C 96.835938 6.46875 95.902344 8.089844 94.949219 9.699219 C 94.050781 11.222656 93.167969 12.757812 92.285156 14.296875 C 91.121094 16.324219 89.949219 18.347656 88.769531 20.371094 C 87.351562 22.800781 85.957031 25.246094 84.570312 27.691406 C 82.007812 32.210938 82.007812 32.210938 81.578125 32.640625 C 80.519531 32.757812 79.460938 32.796875 78.394531 32.828125 C 78.039062 32.84375 77.683594 32.863281 77.324219 32.890625 C 76.128906 32.972656 75.085938 32.976562 73.921875 32.640625 C 73.003906 31.71875 72.53125 30.695312 72.007812 29.519531 C 71.785156 29.121094 71.554688 28.726562 71.320312 28.332031 C 71.105469 27.953125 70.890625 27.574219 70.679688 27.195312 C 70.429688 26.757812 70.183594 26.320312 69.933594 25.882812 C 69.804688 25.65625 69.675781 25.425781 69.542969 25.191406 C 68.832031 23.9375 68.109375 22.6875 67.390625 21.433594 C 67.238281 21.175781 67.089844 20.914062 66.933594 20.644531 C 66.628906 20.113281 66.320312 19.578125 66.015625 19.046875 C 65.394531 17.96875 64.773438 16.890625 64.152344 15.808594 C 62.546875 13.019531 60.941406 10.226562 59.332031 7.441406 C 58.222656 9.042969 57.257812 10.699219 56.324219 12.40625 C 55.121094 14.578125 53.890625 16.734375 52.625 18.867188 C 51.613281 20.570312 50.625 22.28125 49.640625 24 C 48.464844 26.050781 47.28125 28.097656 46.082031 30.136719 C 45.882812 30.472656 45.882812 30.472656 45.679688 30.820312 C 45.5 31.125 45.5 31.125 45.3125 31.441406 C 45.207031 31.621094 45.101562 31.800781 44.992188 31.988281 C 44.738281 32.398438 44.738281 32.398438 44.496094 32.640625 C 43.464844 32.726562 42.425781 32.746094 41.390625 32.765625 C 41.042969 32.769531 40.691406 32.78125 40.34375 32.796875 C 37.507812 32.921875 37.507812 32.921875 36.589844 32.3125 C 36.191406 31.808594 35.925781 31.300781 35.644531 30.71875 C 35.355469 30.226562 35.0625 29.730469 34.769531 29.238281 C 34.453125 28.679688 34.136719 28.117188 33.820312 27.554688 C 33.652344 27.253906 33.480469 26.953125 33.3125 26.652344 C 32.972656 26.050781 32.632812 25.445312 32.292969 24.84375 C 31.648438 23.699219 31 22.558594 30.351562 21.421875 C 30.238281 21.21875 30.125 21.019531 30.007812 20.8125 C 28.699219 18.519531 27.371094 16.238281 26.039062 13.957031 C 25.261719 12.625 24.488281 11.292969 23.714844 9.960938 C 23.429688 9.472656 23.148438 8.984375 22.863281 8.496094 C 22.65625 8.144531 22.453125 7.792969 22.25 7.441406 C 20.492188 10.238281 18.863281 13.105469 17.222656 15.96875 C 16.46875 17.289062 15.710938 18.605469 14.953125 19.921875 C 14.65625 20.4375 14.359375 20.953125 14.0625 21.46875 C 13.523438 22.40625 12.980469 23.34375 12.441406 24.28125 C 10.839844 27.066406 9.242188 29.847656 7.65625 32.640625 C 5.128906 32.640625 2.605469 32.640625 0 32.640625 C 0 31.289062 0 31.289062 0.457031 30.527344 C 0.558594 30.355469 0.660156 30.183594 0.765625 30.007812 C 0.933594 29.726562 0.933594 29.726562 1.105469 29.445312 C 1.351562 29.03125 1.59375 28.621094 1.839844 28.210938 C 2.035156 27.882812 2.035156 27.882812 2.230469 27.550781 C 2.90625 26.417969 3.566406 25.277344 4.230469 24.136719 C 4.371094 23.894531 4.511719 23.65625 4.652344 23.410156 C 5.738281 21.542969 6.8125 19.667969 7.878906 17.789062 C 10.300781 13.527344 12.746094 9.28125 15.207031 5.039062 C 15.339844 4.808594 15.472656 4.578125 15.613281 4.339844 C 15.867188 3.902344 16.125 3.46875 16.386719 3.039062 C 16.761719 2.40625 16.761719 2.40625 17.015625 1.707031 C 18.042969 -0.683594 20.101562 -0.273438 22.339844 -0.148438 Z M 22.726562 2.398438 C 22.449219 3.097656 22.449219 3.097656 22.488281 3.839844 C 22.800781 4.453125 23.039062 4.71875 23.65625 5.023438 C 24.425781 5.046875 24.773438 4.8125 25.359375 4.320312 C 25.636719 3.621094 25.636719 3.621094 25.597656 2.878906 C 25.285156 2.265625 25.046875 2.003906 24.433594 1.695312 C 23.660156 1.671875 23.3125 1.910156 22.726562 2.398438 Z M 59.808594 2.398438 C 59.492188 2.664062 59.492188 2.664062 59.507812 3.328125 C 59.503906 4.066406 59.503906 4.066406 59.867188 4.515625 C 60.363281 4.851562 60.644531 5.003906 61.242188 5.039062 C 61.910156 4.816406 61.910156 4.816406 62.441406 4.320312 C 62.71875 3.621094 62.71875 3.621094 62.679688 2.878906 C 62.367188 2.265625 62.128906 2.003906 61.511719 1.695312 C 60.78125 1.675781 60.394531 1.988281 59.808594 2.398438 Z M 41.417969 27.871094 C 41.019531 28.53125 41.054688 29.003906 41.148438 29.761719 C 41.386719 30.238281 41.386719 30.238281 41.867188 30.480469 C 42.621094 30.574219 43.089844 30.609375 43.75 30.210938 C 44.144531 29.546875 44.113281 29.074219 44.019531 28.320312 C 43.78125 27.839844 43.78125 27.839844 43.300781 27.601562 C 42.546875 27.507812 42.078125 27.472656 41.417969 27.871094 Z M 78.515625 27.898438 C 78.1875 28.382812 78.042969 28.695312 77.992188 29.28125 C 78.226562 29.917969 78.332031 30.171875 78.949219 30.480469 C 79.9375 30.570312 79.9375 30.570312 80.832031 30.210938 C 81.226562 29.546875 81.195312 29.074219 81.101562 28.320312 C 80.859375 27.839844 80.859375 27.839844 80.382812 27.601562 C 79.621094 27.503906 79.15625 27.453125 78.515625 27.898438 Z M 78.515625 27.898438 "/>
<path style=" stroke:none;fill-rule:nonzero;fill:rgb(92.54902%,19.607843%,21.568627%);fill-opacity:1;" d="M 55.261719 0 C 56.359375 -0.0546875 57.460938 -0.09375 58.554688 -0.117188 C 58.929688 -0.128906 59.304688 -0.144531 59.675781 -0.164062 C 62.742188 -0.3125 62.742188 -0.3125 63.671875 0.390625 C 64.0625 0.960938 64.324219 1.523438 64.59375 2.160156 C 64.851562 2.621094 65.113281 3.082031 65.382812 3.539062 C 65.660156 4.039062 65.933594 4.539062 66.207031 5.039062 C 67.175781 6.792969 68.148438 8.539062 69.167969 10.261719 C 70.03125 11.71875 70.875 13.183594 71.710938 14.65625 C 72.792969 16.558594 73.882812 18.460938 74.984375 20.355469 C 75.125 20.59375 75.261719 20.832031 75.40625 21.078125 C 76.167969 22.386719 76.945312 23.679688 77.75 24.960938 C 79.042969 22.878906 80.285156 20.777344 81.488281 18.644531 C 81.824219 18.050781 82.164062 17.457031 82.5 16.863281 C 82.585938 16.714844 82.667969 16.566406 82.753906 16.414062 C 83.550781 15.015625 84.355469 13.628906 85.167969 12.238281 C 86.582031 9.820312 87.972656 7.386719 89.355469 4.949219 C 91.917969 0.429688 91.917969 0.429688 92.34375 0 C 92.914062 -0.0195312 93.472656 -0.0273438 94.042969 -0.0234375 C 94.296875 -0.0234375 94.296875 -0.0234375 94.554688 -0.0234375 C 95.097656 -0.0195312 95.644531 -0.0195312 96.1875 -0.015625 C 96.554688 -0.0117188 96.921875 -0.0117188 97.289062 -0.0117188 C 98.195312 -0.0078125 99.097656 -0.00390625 100 0 C 99.859375 0.953125 99.5625 1.648438 99.089844 2.484375 C 98.953125 2.730469 98.8125 2.976562 98.671875 3.230469 C 98.523438 3.492188 98.375 3.75 98.21875 4.019531 C 98.066406 4.289062 97.917969 4.558594 97.757812 4.839844 C 96.835938 6.46875 95.902344 8.089844 94.949219 9.699219 C 94.050781 11.222656 93.167969 12.757812 92.285156 14.296875 C 91.121094 16.324219 89.949219 18.347656 88.769531 20.371094 C 87.351562 22.800781 85.957031 25.246094 84.570312 27.691406 C 82.007812 32.210938 82.007812 32.210938 81.578125 32.640625 C 80.519531 32.757812 79.460938 32.796875 78.394531 32.828125 C 78.039062 32.84375 77.683594 32.863281 77.324219 32.890625 C 76.128906 32.972656 75.085938 32.976562 73.921875 32.640625 C 73.003906 31.71875 72.53125 30.695312 72.007812 29.519531 C 71.785156 29.121094 71.554688 28.726562 71.320312 28.332031 C 71.105469 27.953125 70.890625 27.574219 70.679688 27.195312 C 70.429688 26.757812 70.183594 26.320312 69.933594 25.882812 C 69.804688 25.65625 69.675781 25.425781 69.542969 25.191406 C 68.832031 23.9375 68.109375 22.6875 67.390625 21.433594 C 67.238281 21.175781 67.089844 20.914062 66.933594 20.644531 C 66.472656 19.84375 66.011719 19.039062 65.550781 18.238281 C 61.960938 12.003906 61.960938 12.003906 60.1875 8.882812 C 59.503906 7.679688 58.816406 6.480469 58.121094 5.285156 C 57.957031 5 57.792969 4.710938 57.625 4.421875 C 57.300781 3.863281 56.976562 3.304688 56.652344 2.746094 C 56.507812 2.492188 56.359375 2.238281 56.207031 1.976562 C 56.078125 1.753906 55.949219 1.527344 55.8125 1.292969 C 55.503906 0.71875 55.503906 0.71875 55.261719 0 Z M 59.808594 2.398438 C 59.492188 2.664062 59.492188 2.664062 59.507812 3.328125 C 59.503906 4.066406 59.503906 4.066406 59.867188 4.515625 C 60.363281 4.851562 60.644531 5.003906 61.242188 5.039062 C 61.910156 4.816406 61.910156 4.816406 62.441406 4.320312 C 62.71875 3.621094 62.71875 3.621094 62.679688 2.878906 C 62.367188 2.265625 62.128906 2.003906 61.511719 1.695312 C 60.78125 1.675781 60.394531 1.988281 59.808594 2.398438 Z M 78.515625 27.898438 C 78.1875 28.382812 78.042969 28.695312 77.992188 29.28125 C 78.226562 29.917969 78.332031 30.171875 78.949219 30.480469 C 79.9375 30.570312 79.9375 30.570312 80.832031 30.210938 C 81.226562 29.546875 81.195312 29.074219 81.101562 28.320312 C 80.859375 27.839844 80.859375 27.839844 80.382812 27.601562 C 79.621094 27.503906 79.15625 27.453125 78.515625 27.898438 Z M 78.515625 27.898438 "/>
<path style=" stroke:none;fill-rule:nonzero;fill:rgb(24.313725%,25.098039%,58.431373%);fill-opacity:1;" d="M 1.667969 35.3125 C 2.550781 35.691406 3.058594 36.445312 3.664062 37.171875 C 4.558594 38.242188 5.574219 39.195312 6.574219 40.164062 C 6.945312 40.527344 7.300781 40.902344 7.65625 41.28125 C 7.65625 41.4375 7.65625 41.597656 7.65625 41.761719 C 7.894531 41.839844 8.128906 41.917969 8.375 42 C 8.6875 42.394531 9.003906 42.792969 9.332031 43.199219 C 9.410156 40.664062 9.488281 38.132812 9.570312 35.519531 C 10.4375 35.519531 11.304688 35.519531 12.199219 35.519531 C 12.210938 37.21875 12.222656 38.921875 12.226562 40.621094 C 12.230469 41.199219 12.234375 41.777344 12.238281 42.355469 C 12.242188 43.1875 12.246094 44.015625 12.246094 44.847656 C 12.25 45.109375 12.253906 45.367188 12.253906 45.636719 C 12.253906 45.996094 12.253906 45.996094 12.253906 46.363281 C 12.257812 46.578125 12.257812 46.789062 12.257812 47.007812 C 12.199219 47.519531 12.199219 47.519531 11.722656 48 C 10.945312 48.113281 10.945312 48.113281 10.046875 48 C 9.484375 47.570312 9.074219 47.199219 8.613281 46.679688 C 8.488281 46.546875 8.363281 46.414062 8.234375 46.277344 C 7.453125 45.445312 6.703125 44.585938 5.964844 43.71875 C 4.90625 42.535156 3.757812 41.4375 2.632812 40.320312 C 2.554688 42.855469 2.472656 45.386719 2.390625 48 C 1.605469 48 0.8125 48 0 48 C 0 43.882812 0 39.761719 0 35.519531 C 0.582031 35.226562 1.027344 35.203125 1.667969 35.3125 Z M 1.667969 35.3125 "/>
<path style=" stroke:none;fill-rule:nonzero;fill:rgb(24.313725%,25.098039%,58.431373%);fill-opacity:1;" d="M 25.359375 38.398438 C 26.226562 38.398438 27.09375 38.398438 27.992188 38.398438 C 28.070312 39.824219 28.148438 41.25 28.230469 42.71875 C 29.269531 41.699219 30.253906 40.660156 31.203125 39.550781 C 31.328125 39.410156 31.449219 39.265625 31.578125 39.121094 C 31.695312 38.980469 31.8125 38.84375 31.933594 38.699219 C 32.296875 38.398438 32.296875 38.398438 33.164062 38.460938 C 33.972656 38.640625 33.972656 38.640625 34.210938 38.878906 C 34.246094 39.253906 34.269531 39.628906 34.285156 40.003906 C 34.296875 40.230469 34.304688 40.457031 34.316406 40.691406 C 34.328125 40.929688 34.335938 41.167969 34.34375 41.414062 C 34.355469 41.65625 34.367188 41.894531 34.375 42.140625 C 34.402344 42.734375 34.425781 43.328125 34.449219 43.921875 C 35.414062 42.695312 36.226562 41.46875 36.933594 40.078125 C 37.015625 39.917969 37.101562 39.753906 37.191406 39.585938 C 37.394531 39.191406 37.597656 38.796875 37.800781 38.398438 C 38.746094 38.398438 39.695312 38.398438 40.667969 38.398438 C 40.273438 41.722656 37.609375 45.105469 35.125 47.207031 C 34.171875 47.890625 33.480469 48.125 32.296875 48 C 31.902344 47.75 31.902344 47.75 31.578125 47.28125 C 31.488281 46.648438 31.433594 46.070312 31.414062 45.433594 C 31.402344 45.183594 31.402344 45.183594 31.390625 44.925781 C 31.371094 44.511719 31.355469 44.09375 31.339844 43.679688 C 31.195312 43.835938 31.195312 43.835938 31.042969 44 C 30.597656 44.480469 30.15625 44.957031 29.710938 45.433594 C 29.480469 45.683594 29.480469 45.683594 29.246094 45.9375 C 29.019531 46.175781 29.019531 46.175781 28.792969 46.421875 C 28.65625 46.570312 28.519531 46.714844 28.378906 46.867188 C 28.25 47.003906 28.125 47.140625 27.992188 47.28125 C 27.867188 47.414062 27.746094 47.550781 27.617188 47.6875 C 27.273438 48 27.273438 48 26.675781 48.089844 C 26.078125 48 26.078125 48 25.683594 47.761719 C 25.164062 46.992188 25.269531 46.164062 25.289062 45.265625 C 25.289062 45.070312 25.292969 44.875 25.292969 44.671875 C 25.296875 44.046875 25.304688 43.421875 25.3125 42.796875 C 25.316406 42.371094 25.320312 41.945312 25.324219 41.523438 C 25.332031 40.480469 25.34375 39.441406 25.359375 38.398438 Z M 25.359375 38.398438 "/>
<path style=" stroke:none;fill-rule:nonzero;fill:rgb(92.941176%,19.607843%,21.568627%);fill-opacity:1;" d="M 57.804688 38.339844 C 58.039062 38.335938 58.277344 38.332031 58.519531 38.324219 C 59.9375 38.316406 60.953125 38.425781 62.199219 39.121094 C 63.4375 40.359375 63.4375 41.582031 63.457031 43.273438 C 63.453125 44.6875 63.378906 45.796875 62.679688 47.039062 C 61.367188 48.265625 59.992188 48.144531 58.269531 48.121094 C 57.871094 48.125 57.871094 48.125 57.464844 48.132812 C 55.890625 48.125 54.855469 48.011719 53.589844 47.039062 C 52.789062 45.742188 52.804688 44.875 53.109375 43.441406 C 53.332031 42.640625 53.59375 42.476562 54.285156 41.976562 C 55.441406 41.328125 56.585938 41.414062 57.878906 41.460938 C 58.113281 41.464844 58.34375 41.46875 58.582031 41.472656 C 59.152344 41.484375 59.71875 41.5 60.285156 41.519531 C 60.285156 42.390625 60.285156 43.261719 60.285156 44.160156 C 58.785156 44.238281 57.289062 44.316406 55.742188 44.398438 C 55.742188 44.636719 55.742188 44.875 55.742188 45.121094 C 56.496094 45.5 57.304688 45.394531 58.132812 45.390625 C 58.308594 45.390625 58.488281 45.390625 58.667969 45.394531 C 59.628906 45.410156 59.628906 45.410156 60.527344 45.121094 C 60.527344 43.851562 60.527344 42.585938 60.527344 41.28125 C 58.710938 41.203125 56.894531 41.121094 55.023438 41.039062 C 55.023438 37.847656 55.160156 38.351562 57.804688 38.339844 Z M 57.804688 38.339844 "/>
<path style=" stroke:none;fill-rule:nonzero;fill:rgb(24.313725%,25.098039%,58.431373%);fill-opacity:1;" d="M 19.019531 38.296875 C 19.417969 38.292969 19.417969 38.292969 19.828125 38.289062 C 21.433594 38.300781 22.636719 38.390625 23.878906 39.511719 C 24.484375 40.722656 24.507812 41.859375 24.148438 43.15625 C 23.632812 44.007812 23.167969 44.511719 22.25 44.878906 C 21.339844 44.996094 20.441406 44.96875 19.527344 44.941406 C 19.28125 44.9375 19.039062 44.929688 18.789062 44.925781 C 18.1875 44.914062 17.585938 44.898438 16.984375 44.878906 C 16.984375 44.089844 16.984375 43.296875 16.984375 42.480469 C 17.417969 42.457031 17.417969 42.457031 17.859375 42.433594 C 18.234375 42.417969 18.613281 42.394531 18.988281 42.375 C 19.179688 42.367188 19.367188 42.355469 19.566406 42.347656 C 20.578125 42.316406 20.578125 42.316406 21.53125 42 C 21.53125 41.761719 21.53125 41.527344 21.53125 41.28125 C 20.777344 40.902344 19.964844 41.007812 19.140625 41.011719 C 18.964844 41.011719 18.785156 41.007812 18.605469 41.007812 C 17.644531 40.988281 17.644531 40.988281 16.746094 41.28125 C 16.746094 42.546875 16.746094 43.816406 16.746094 45.121094 C 18.246094 45.199219 19.746094 45.277344 21.292969 45.359375 C 21.292969 46.230469 21.292969 47.101562 21.292969 48 C 20.484375 48.019531 19.675781 48.035156 18.871094 48.046875 C 18.640625 48.050781 18.414062 48.054688 18.179688 48.0625 C 16.878906 48.078125 15.953125 48.023438 14.832031 47.28125 C 13.730469 46.058594 13.824219 44.804688 13.816406 43.246094 C 13.808594 43.03125 13.804688 42.816406 13.800781 42.597656 C 13.792969 41.34375 13.84375 40.414062 14.59375 39.359375 C 15.878906 38.101562 17.332031 38.265625 19.019531 38.296875 Z M 19.019531 38.296875 "/>
<path style=" stroke:none;fill-rule:nonzero;fill:rgb(92.941176%,19.607843%,21.568627%);fill-opacity:1;" d="M 95.035156 38.324219 C 95.253906 38.316406 95.476562 38.3125 95.703125 38.304688 C 97.15625 38.292969 98.328125 38.476562 99.523438 39.359375 C 100.09375 40.21875 100.101562 40.6875 100.132812 41.714844 C 100.148438 42.003906 100.164062 42.292969 100.179688 42.589844 C 99.964844 43.605469 99.6875 43.992188 98.871094 44.613281 C 97.785156 45.140625 96.648438 45.027344 95.46875 44.96875 C 95.214844 44.964844 94.960938 44.957031 94.699219 44.953125 C 94.070312 44.933594 93.445312 44.90625 92.824219 44.878906 C 92.824219 44.089844 92.824219 43.296875 92.824219 42.480469 C 94.324219 42.402344 95.824219 42.324219 97.367188 42.238281 C 97.367188 41.921875 97.367188 41.605469 97.367188 41.28125 C 96.613281 41.273438 95.863281 41.269531 95.109375 41.265625 C 94.894531 41.261719 94.679688 41.261719 94.460938 41.257812 C 94.253906 41.257812 94.050781 41.257812 93.839844 41.257812 C 93.652344 41.253906 93.460938 41.253906 93.269531 41.25 C 92.820312 41.230469 92.820312 41.230469 92.582031 41.519531 C 92.566406 42.167969 92.5625 42.808594 92.570312 43.453125 C 92.574219 44.082031 92.578125 44.714844 92.582031 45.359375 C 94.164062 45.4375 95.742188 45.515625 97.367188 45.601562 C 97.367188 46.3125 97.367188 47.023438 97.367188 47.761719 C 96.804688 48.324219 95.445312 48.066406 94.691406 48.074219 C 94.464844 48.082031 94.238281 48.089844 94.007812 48.09375 C 92.617188 48.109375 91.742188 48.023438 90.667969 47.039062 C 89.714844 45.953125 89.84375 44.710938 89.863281 43.335938 C 89.859375 43.113281 89.855469 42.890625 89.855469 42.660156 C 89.859375 41.378906 89.953125 40.460938 90.667969 39.359375 C 91.917969 38.191406 93.425781 38.34375 95.035156 38.324219 Z M 95.035156 38.324219 "/>
<path style=" stroke:none;fill-rule:nonzero;fill:rgb(92.941176%,19.607843%,21.568627%);fill-opacity:1;" d="M 41.386719 35.519531 C 42.335938 35.519531 43.28125 35.519531 44.257812 35.519531 C 44.6875 36.375 45.117188 37.234375 45.546875 38.09375 C 45.695312 38.386719 45.839844 38.675781 45.984375 38.96875 C 47.480469 41.945312 47.480469 41.945312 48.085938 43.441406 C 48.644531 42.738281 49.042969 42.039062 49.425781 41.230469 C 49.539062 40.988281 49.652344 40.75 49.769531 40.503906 C 49.941406 40.128906 49.941406 40.128906 50.121094 39.75 C 50.351562 39.257812 50.582031 38.765625 50.816406 38.273438 C 50.921875 38.046875 51.03125 37.816406 51.140625 37.582031 C 51.46875 36.890625 51.808594 36.203125 52.152344 35.519531 C 53.101562 35.519531 54.046875 35.519531 55.023438 35.519531 C 54.808594 36.601562 54.488281 37.386719 53.992188 38.339844 C 52.953125 40.371094 51.976562 42.429688 51.007812 44.492188 C 49.789062 47.0625 49.789062 47.0625 49.042969 48 C 48.21875 48.210938 48.21875 48.210938 47.367188 48 C 46.269531 46.726562 45.617188 44.984375 44.917969 43.46875 C 43.984375 41.484375 43.027344 39.507812 42.019531 37.558594 C 41.386719 36.316406 41.386719 36.316406 41.386719 35.519531 Z M 41.386719 35.519531 "/>
<path style=" stroke:none;fill-rule:nonzero;fill:rgb(92.941176%,19.607843%,21.568627%);fill-opacity:1;" d="M 78.707031 38.398438 C 79.101562 38.394531 79.496094 38.390625 79.890625 38.386719 C 80.109375 38.382812 80.328125 38.378906 80.554688 38.378906 C 81.101562 38.398438 81.101562 38.398438 81.339844 38.640625 C 81.378906 39.121094 81.398438 39.601562 81.414062 40.078125 C 81.429688 40.519531 81.429688 40.519531 81.445312 40.964844 C 81.457031 41.273438 81.464844 41.578125 81.472656 41.894531 C 81.484375 42.203125 81.496094 42.511719 81.507812 42.828125 C 81.53125 43.59375 81.554688 44.355469 81.578125 45.121094 C 84.652344 43.699219 85.8125 41.414062 87.082031 38.398438 C 87.949219 38.398438 88.816406 38.398438 89.714844 38.398438 C 89.417969 41.34375 87.617188 44.382812 85.363281 46.28125 C 83.507812 47.601562 81.476562 48.332031 79.1875 48 C 78.707031 47.519531 78.707031 47.519531 78.652344 46.628906 C 78.652344 46.246094 78.65625 45.859375 78.660156 45.476562 C 78.660156 45.277344 78.664062 45.074219 78.664062 44.867188 C 78.667969 44.222656 78.671875 43.574219 78.679688 42.929688 C 78.679688 42.492188 78.683594 42.054688 78.6875 41.617188 C 78.6875 40.546875 78.699219 39.472656 78.707031 38.398438 Z M 78.707031 38.398438 "/>
<path style=" stroke:none;fill-rule:nonzero;fill:rgb(92.941176%,19.607843%,21.568627%);fill-opacity:1;" d="M 66.984375 35.519531 C 67.855469 35.519531 68.722656 35.519531 69.617188 35.519531 C 69.617188 36.46875 69.617188 37.421875 69.617188 38.398438 C 70.800781 38.398438 71.984375 38.398438 73.207031 38.398438 C 73.207031 39.273438 73.207031 40.140625 73.207031 41.039062 C 72.019531 41.039062 70.835938 41.039062 69.617188 41.039062 C 69.617188 43.335938 69.617188 45.632812 69.617188 48 C 68.75 48 67.882812 48 66.984375 48 C 66.984375 45.703125 66.984375 43.40625 66.984375 41.039062 C 66.039062 41.039062 65.089844 41.039062 64.113281 41.039062 C 64.113281 40.167969 64.113281 39.296875 64.113281 38.398438 C 65.0625 38.398438 66.011719 38.398438 66.984375 38.398438 C 66.984375 37.449219 66.984375 36.5 66.984375 35.519531 Z M 66.984375 35.519531 "/>
<path style=" stroke:none;fill-rule:nonzero;fill:rgb(92.941176%,19.607843%,21.568627%);fill-opacity:1;" d="M 74.402344 38.398438 C 75.191406 38.398438 75.980469 38.398438 76.792969 38.398438 C 77.035156 38.640625 77.035156 38.640625 77.0625 39.527344 C 77.0625 39.921875 77.058594 40.316406 77.054688 40.710938 C 77.054688 40.917969 77.054688 41.125 77.054688 41.339844 C 77.054688 42.003906 77.050781 42.667969 77.046875 43.335938 C 77.046875 43.785156 77.046875 44.234375 77.042969 44.683594 C 77.042969 45.789062 77.039062 46.894531 77.035156 48 C 76.164062 48 75.296875 48 74.402344 48 C 74.402344 44.832031 74.402344 41.664062 74.402344 38.398438 Z M 74.402344 38.398438 "/>
<path style=" stroke:none;fill-rule:nonzero;fill:rgb(92.941176%,19.607843%,21.568627%);fill-opacity:1;" d="M 74.402344 34.800781 C 75.269531 34.800781 76.136719 34.800781 77.035156 34.800781 C 77.054688 36.464844 77.054688 36.464844 77.035156 36.960938 C 76.792969 37.199219 76.792969 37.199219 76.25 37.222656 C 75.632812 37.214844 75.015625 37.207031 74.402344 37.199219 C 74.402344 36.410156 74.402344 35.617188 74.402344 34.800781 Z M 74.402344 34.800781 "/>
</g>
</svg>
